# xmcd
#
# Track frame offsets: 
#        150
#        16787
#        33200
#        51500
#        65045
#        80987
#        100750
#        120900
#        134787
#        151732
#        165232
#
# Disc length: 2481 seconds
#
# Revision: 7
# Processed by: cddbd v1.5.2PL0 Copyright (c) Steve Scherf et al.
# Submitted via: ExactAudioCopyFreeDBPlugin 1.0
#
DISCID=8809af0b
DTITLE=Delbert McClinton - Live From Austin
DYEAR=1989
DGENRE=Blues
TTITLE0=Maybe Someday Baby (live)
TTITLE1=Lipstick Traces (live)
TTITLE2=Standing On Shaky Ground (live)
TTITLE3=Sandy Beaches (live)
TTITLE4=Thank You Baby (live)
TTITLE5=B Movie Box Car Blues (live)
TTITLE6=I've Got Dreams To Remember (live)
TTITLE7=Let Me Be Your Lover (live)
TTITLE8=Going Back To Louisiana (live)
TTITLE9=You Are My Sunshine (live)
TTITLE10=Givin' It Up For Your Love (live)
EXTD=YEAR: 1989
EXTT0=
EXTT1=
EXTT2=
EXTT3=
EXTT4=
EXTT5=
EXTT6=
EXTT7=
EXTT8=
EXTT9=
EXTT10=
PLAYORDER=
